<?xml version="1.0" encoding="UTF-8"?><svg id="a" xmlns="http://www.w3.org/2000/svg" viewBox="0 0 200 200"><rect width="200" height="200" rx="15.98" ry="15.98" style="fill:#d4d4d4;"/><rect x="4.65" y="5.81" width="162.79" height="162.79" rx="15.98" ry="15.98" style="fill:#f3f2ef;"/><path d="M50.31,31.97l-3.51,3.51c-3.17,3.17-4.94,7.44-4.94,11.93v34.95c0,2.82,1.4,5.46,3.75,7.02l2.8,1.85c3.77,2.53,8.63,2.82,12.7,.79l.84-.42c.69-.34,1.32-.74,1.93-1.19l13.04-9.77c1.74-1.32,4.14-1.32,5.89,0,2.69,2.03,2.61,6.1-.18,8l-33.79,23.04c-4.36,2.98-6.97,7.92-6.97,13.2H126.33l7.63-41.97c.55-2.98,.82-6.02,.82-9.05v-3.88c0-27.98-22.7-50.68-50.68-50.68H47.09c-2.88,0-5.23,2.35-5.23,5.23,0,1.98,1.11,3.77,2.88,4.67l5.57,2.77Zm6.33,17.95c0-2.92,2.36-5.28,5.28-5.28s5.28,2.36,5.28,5.28-2.36,5.28-5.28,5.28-5.28-2.36-5.28-5.28Zm-25.71,94.34c-1.11,1.11-1.74,2.64-1.74,4.22,0,3.3,2.67,5.97,5.97,5.97h97.87c3.3,0,5.97-2.67,5.97-5.97,0-1.58-.63-3.11-1.74-4.22l-10.93-10.93H41.87l-10.93,10.93Z" style="fill:#2d2d2a;"/></svg>