<?xml version="1.0" encoding="UTF-8"?><svg id="a" xmlns="http://www.w3.org/2000/svg" viewBox="0 0 509.08 509.08"><circle cx="254.54" cy="254.54" r="254.54" style="fill:#fff;"/><path d="M254.54,21.8c-16.09,0-29.09,13-29.09,29.09v58.19c0,16.09,13,29.09,29.09,29.09s29.09-13,29.09-29.09v-26.64c82.55,13.82,145.46,85.64,145.46,172.1,0,96.37-78.19,174.56-174.56,174.56S79.98,350.91,79.98,254.54c0-48.82,20-93.01,52.37-124.64,11.46-11.27,11.64-29.64,.45-41.18s-29.64-11.64-41.18-.45C48.62,130.53,21.8,189.45,21.8,254.54c0,128.55,104.19,232.74,232.74,232.74s232.74-104.19,232.74-232.74S383.1,21.8,254.54,21.8Zm-57.28,144.56c-8.55-8.55-22.37-8.55-30.82,0-8.46,8.55-8.55,22.37,0,30.82l72.73,72.73c8.55,8.55,22.37,8.55,30.82,0,8.46-8.55,8.55-22.37,0-30.82l-72.73-72.73Z"/></svg>